PathFileType	4	(X/Y/Z)	33_1_49_p1_0-311_filt_butterworth.trc
DataRate	CameraRate	NumFrames	NumMarkers	Units	OrigDataRate	OrigDataStartFrame	OrigNumFrames
59.0	59.0	5	27	m	59.0	0	311
Frame#	Time	RHip			RKnee			RAnkle			RBigToe			RSmallToe			RHeel			LHip			LKnee			LAnkle			LBigToe			LSmallToe			LHeel			Neck			Head			Nose			RShoulder			RElbow			RWrist			RThumb			RIndex			RPinky			LShoulder			LElbow			LWrist			LThumb			LIndex			LPinky			
		X1	Y1	Z1	X2	Y2	Z2	X3	Y3	Z3	X4	Y4	Z4	X5	Y5	Z5	X6	Y6	Z6	X7	Y7	Z7	X8	Y8	Z8	X9	Y9	Z9	X10	Y10	Z10	X11	Y11	Z11	X12	Y12	Z12	X13	Y13	Z13	X14	Y14	Z14	X15	Y15	Z15	X16	Y16	Z16	X17	Y17	Z17	X18	Y18	Z18	X19	Y19	Z19	X20	Y20	Z20	X21	Y21	Z21	X22	Y22	Z22	X23	Y23	Z23	X24	Y24	Z24	X25	Y25	Z25	X26	Y26	Z26	X27	Y27	Z27	
0	0.0	0.2966066408660789	0.5942618409164961	0.5851727609950537	0.26301805967365455	0.15313585601765548	0.6254451879692835	0.23575094672346597	-0.2792793506076091	0.6962510116835071	0.25992093946849126	-0.28351630715791887	0.5232740523840695	0.3130073939964819	-0.2955476759696141	0.5729907417537948	0.21196338596813638	-0.3450846191706546	0.7509055439731863	0.07140402530275239	0.5912711299881561	0.5931660261549253	0.08159151668431003	0.14814046944728854	0.6485668009839162	0.08191589003532376	-0.29541463572682786	0.6988726151280394	0.0959562852845081	-0.24954503102524275	0.4979164141737991	0.03989999935261095	-0.2823962393915901	0.5622820824261778	0.09209629652290804	-0.35702104129086815	0.7517701103239838	0.21005041242258177	1.205965641020721	0.538050468618417	0.20808903254139308	1.4437596171472504	0.4991638657943164	0.20933817861433096	1.3181299271716482	0.4148590326328693	0.3582863983370369	1.0968536856324822	0.5970182157569958	0.37567872009647374	0.8470953492482597	0.5247829775802281	0.2634184156648228	0.6436856499279866	0.4321122511604223	0.14020700510797396	0.5747570105906503	0.4002285436876022	0.14623004198091094	0.5655639479397829	0.4078696707022299	0.18491412953079364	0.5301837900898323	0.40992985739643184	0.04885381530047021	1.117348873281688	0.5813205713929832	0.005563156948656316	0.8543890401021637	0.5086799196098508	0.11263786798726702	0.6478610058954087	0.4616010734629068	0.1894735439866587	0.5465060267722429	0.5096047654248769	0.18898405200023097	0.519853301172769	0.5069087130752314	0.17099852482985087	0.5358026797128669	0.4219887945389151	
1	0.0169491525423728	0.296311831410529	0.5928743048134602	0.5844962586612185	0.26300937967989313	0.1519399660738454	0.6274931744855284	0.23755933754477232	-0.27646792902760847	0.6915167428476051	0.26009904601589207	-0.2834046395340222	0.5271470376949104	0.3124280744115183	-0.2938180552430891	0.5728414186067226	0.2126140647830215	-0.3484183985317817	0.7533545056478583	0.07309516684633581	0.5923560577346416	0.5890259286419708	0.08249029557322497	0.14607445173363773	0.6505744205148278	0.08168711731161227	-0.29647870176426805	0.6996143724111143	0.09409159654684428	-0.25065433320107267	0.4977888455681577	0.04009022404146187	-0.2831556715869283	0.5625224266635248	0.09284868991746276	-0.3587870162306801	0.7542124810489053	0.21113479570673932	1.2055894724319394	0.5437290371698065	0.20833980035877334	1.44380986200454	0.49918024040628073	0.21054178494775377	1.3180970298929675	0.4155624022298843	0.3593042930602194	1.0963498793852338	0.6022412747456314	0.37425571029472443	0.8455150599193513	0.5281269601588581	0.2624129307340756	0.6440324338447813	0.42837618823335233	0.14241759049438488	0.5717378506136249	0.4026808561006123	0.14680865051034106	0.5652796875845315	0.4075808728404752	0.185276472076174	0.5287378817667201	0.4109574609220124	0.0488915876040527	1.118081469513101	0.5812824301584195	0.006497771874310419	0.8543157316197033	0.5123015140151398	0.11790998129661147	0.6491320431351442	0.4541956354171198	0.19002117710102717	0.5463056433227028	0.49709014692133385	0.19155147656895305	0.5196527820572807	0.4949611300927489	0.17054543307945008	0.5410811722070782	0.42252100392470293	
2	0.0338983050847457	0.2961889269541141	0.5917635740410544	0.5839932941110398	0.2630164098158299	0.15070844547809342	0.6292030943713829	0.23888493216533438	-0.27431183321121383	0.6880776677416399	0.2600227297212751	-0.28242673189884865	0.5280400522393774	0.31206837934681697	-0.2925800570686872	0.5728127168950429	0.21315709769706426	-0.35117606905822757	0.7554806049666123	0.07448544843806021	0.5931234065353501	0.5860835346831338	0.08320138003729576	0.14407876194401595	0.6523404200806506	0.08147274335835376	-0.2973236215285807	0.7001112987031034	0.09259799547553671	-0.25127402004360494	0.49775419099083706	0.040131494649452266	-0.2835464696902538	0.5626762958822276	0.09339377463916043	-0.36019822169531385	0.7561964393860786	0.2118255852144158	1.2053458962478742	0.5473498175944901	0.20841354364089526	1.4438401191916082	0.49914805228121545	0.21148716645428237	1.3180786399401436	0.4158544814087668	0.35944080993584177	1.0959683583514177	0.6059223287023493	0.3730485300452083	0.8444914016367934	0.5311675091248972	0.26181728164161067	0.6436216052702307	0.4260294345849151	0.14393448040176984	0.5696972834255465	0.4043753629396605	0.14721275548725749	0.5649517971705083	0.40745568754011435	0.1857372329142279	0.5268218600220747	0.4115942714729967	0.0489141698788021	1.1187634312171963	0.581283272888788	0.007709871320809693	0.8533981110988624	0.5164644471076172	0.1216777467142347	0.6489399799303227	0.4490570718151047	0.19063538608094616	0.5457640920394138	0.48853959219046217	0.19328323956604676	0.5190590247133503	0.4867747021481268	0.17041965555971963	0.5428619427904303	0.423198418330368	
3	0.0508474576271186	0.2962189204148878	0.5909139566725968	0.5836471226448307	0.2630371551294297	0.14945779917514665	0.6305996636470872	0.2397753247945274	-0.27274864570149926	0.6858055848365543	0.2597486021646929	-0.2808180860062265	0.5266584301295525	0.31188631994203503	-0.2917577055007328	0.5728793724446155	0.21360023591823926	-0.35339910650921225	0.7573040899795246	0.07560070053317128	0.5936006374495424	0.5842374390966599	0.0837458299031721	0.1421640986901319	0.6538741220113633	0.08127361366543505	-0.2979722302349432	0.7003963374884749	0.09142711481314462	-0.25146657162574615	0.4977916683275352	0.04005687650263391	-0.28359598660362423	0.5627518988642881	0.09374956914333998	-0.361284586688121	0.757756997013208	0.21219786532511417	1.205209139671433	0.5493069199394337	0.20836774006130115	1.4438552373642475	0.4990864527930661	0.21222279815457137	1.3180687038539056	0.4159300357968231	0.3589046890077129	1.0956926745846503	0.6083124492331901	0.37204886373223045	0.8439214787623059	0.5338575136870267	0.26154270240012223	0.6427088633817702	0.42478787786954847	0.1448777937454488	0.5684555320756276	0.4054655251915269	0.14749680671104062	0.5645957473502511	0.4074847425818529	0.18625068199240533	0.5246743190424088	0.4119197789339223	0.048924342524027976	1.1193818130591338	0.5813128785942554	0.009078944936380567	0.8519143835812879	0.5208700339325439	0.12419182241300293	0.6477238188734874	0.44574757438923257	0.19123227393007172	0.5450426279469611	0.4831266260607032	0.19427983572632934	0.5182539304776193	0.4815548806314187	0.1705308141419592	0.5420655905867227	0.4238776290616244	
4	0.0677966101694915	0.2963828047109039	0.5903097607814058	0.5834409995629043	0.2630696206686574	0.14820453210975212	0.6317075983328819	0.24027810964172666	-0.27171594904153884	0.6845722926032908	0.25933327492619807	-0.2788142036099842	0.5237075054775172	0.3118399073368295	-0.29127502459355104	0.5730161210812995	0.2139512306545212	-0.3551289866439555	0.7588452087366718	0.07646675358691471	0.5938152115364791	0.5833862367007948	0.08414470499750376	0.14034116058369425	0.6551848486369448	0.08109057372274296	-0.29844736309853215	0.7005024322516965	0.09053058730222723	-0.2512944680204028	0.49788049546394975	0.039899434927058566	-0.283331575229097	0.5627574443917086	0.09393409188534027	-0.36207604021245304	0.7589291656079967	0.21232672041833736	1.2051534299055238	0.5499944542516031	0.20825986729353324	1.443860065178252	0.49901459331577935	0.21279715506927535	1.3180611681749816	0.4159838310213593	0.3579046703196417	1.0955063801385472	0.6096627079441947	0.3712483957400959	0.8437023956576084	0.5361498630539274	0.2615004270223047	0.6415499073568346	0.4243674057416901	0.14536764944074176	0.5678328196130802	0.4061048038429919	0.1477152539810708	0.5642270087762976	0.40765866574639653	0.18677108925815644	0.5225338530142352	0.41201347318932685	0.04892488593903988	1.119923669704072	0.581361026284988	0.010484482369249468	0.850142754108627	0.5252195895351812	0.12570286656578242	0.6459225625571816	0.44382933487187487	0.19172794365205995	0.5443025060699299	0.4800247733604983	0.194641759784618	0.5174194006867293	0.47850711693267833	0.1707885306974685	0.5396127147197551	0.42441522742418714	
